<svg width="18" height="11" viewBox="0 0 18 11" fill="none" xmlns="http://www.w3.org/2000/svg">
<path fill-rule="evenodd" clip-rule="evenodd" d="M11.3723 1.84727H15.8919V0.552421H11.3723V1.84727ZM12.443 4.67259C12.155 4.96561 11.9734 5.36258 11.8991 5.86349H15.4142C15.3771 5.32892 15.1945 4.92502 14.8714 4.64685C14.5442 4.37066 14.1419 4.23305 13.6602 4.23305C13.1384 4.23305 12.731 4.37956 12.443 4.67259ZM15.4935 2.93426C16.0383 3.17383 16.4869 3.55397 16.8401 4.0727C17.1622 4.53005 17.3689 5.06066 17.4632 5.66354C17.5184 6.01596 17.5405 6.52677 17.5315 7.19103H11.8489C11.883 7.96219 12.152 8.5037 12.6657 8.81355C12.9768 9.00659 13.3511 9.1036 13.7906 9.1036C14.2532 9.1036 14.6315 8.9858 14.9215 8.75118C15.081 8.62348 15.2215 8.44727 15.3419 8.22156H17.4241C17.3689 8.67694 17.116 9.14122 16.6685 9.61243C15.9701 10.3598 14.9917 10.734 13.7344 10.734C12.6958 10.734 11.7797 10.4192 10.988 9.78765C10.1922 9.15706 9.79687 8.1295 9.79687 6.70793C9.79687 5.37448 10.1551 4.35186 10.8706 3.64009C11.588 2.9303 12.5162 2.57293 13.6592 2.57293C14.3385 2.57293 14.9496 2.6937 15.4935 2.93426ZM2.569 5.89122V8.66604H5.12981C5.58739 8.66604 5.94462 8.60466 6.19849 8.4829C6.66108 8.25521 6.89187 7.8236 6.89187 7.18409C6.89187 6.6416 6.66911 6.27037 6.22056 6.06743C5.9697 5.95458 5.61749 5.89518 5.16594 5.89122H2.569ZM2.569 1.874V4.16969H5.13383C5.5904 4.16969 5.96268 4.08356 6.24966 3.91131C6.53465 3.73906 6.67814 3.43416 6.67814 2.99858C6.67814 2.51252 6.48949 2.19277 6.11219 2.03635C5.78507 1.92845 5.36964 1.874 4.8649 1.874H2.569ZM8.29673 1.17612C8.61884 1.61863 8.7804 2.14726 8.7804 2.764C8.7804 3.39855 8.61884 3.91035 8.29272 4.29643C8.11009 4.51224 7.84217 4.71023 7.48795 4.88842C8.0258 5.08245 8.4312 5.38834 8.70714 5.80709C8.98008 6.22485 9.11756 6.73368 9.11756 7.3316C9.11756 7.94834 8.96102 8.50172 8.64694 8.99076C8.44825 9.31447 8.1994 9.58769 7.90037 9.80944C7.56421 10.0639 7.16785 10.2371 6.70927 10.3321C6.25069 10.4262 5.75499 10.4717 5.21915 10.4717H0.466797V0.0673828H5.56333C6.84976 0.0861918 7.75989 0.455441 8.29673 1.17612Z" fill="#2D2D2D"/>
</svg>
