<svg width="42" height="43" viewBox="0 0 42 43" fill="none" xmlns="http://www.w3.org/2000/svg">
<path opacity="0.2" d="M34.125 6.87842H28.875C28.1501 6.87842 27.5625 7.46604 27.5625 8.19092V13.4409C27.5625 14.1658 28.1501 14.7534 28.875 14.7534H34.125C34.8499 14.7534 35.4375 14.1658 35.4375 13.4409V8.19092C35.4375 7.46604 34.8499 6.87842 34.125 6.87842Z" fill="#009379"/>
<path opacity="0.2" d="M7.875 6.94092H13.125C13.8154 6.94092 14.375 7.50056 14.375 8.19092V13.4409C14.375 14.1313 13.8154 14.6909 13.125 14.6909H7.875C7.18464 14.6909 6.625 14.1313 6.625 13.4409V8.19092C6.625 7.50056 7.18464 6.94092 7.875 6.94092Z" fill="#009379" stroke="#009379" stroke-width="0.125"/>
<path opacity="0.2" d="M28.875 27.9409H34.125C34.8154 27.9409 35.375 28.5006 35.375 29.1909V34.4409C35.375 35.1313 34.8154 35.6909 34.125 35.6909H28.875C28.1846 35.6909 27.625 35.1313 27.625 34.4409V29.1909C27.625 28.5006 28.1846 27.9409 28.875 27.9409Z" fill="#009379" stroke="#009379" stroke-width="0.125"/>
<path opacity="0.2" d="M7.875 27.9409H13.125C13.8154 27.9409 14.375 28.5006 14.375 29.1909V34.4409C14.375 35.1313 13.8154 35.6909 13.125 35.6909H7.875C7.18464 35.6909 6.625 35.1313 6.625 34.4409V29.1909C6.625 28.5006 7.18464 27.9409 7.875 27.9409Z" fill="#009379" stroke="#009379" stroke-width="0.125"/>
<path d="M34.125 6.87842H28.875C28.1501 6.87842 27.5625 7.46604 27.5625 8.19092V13.4409C27.5625 14.1658 28.1501 14.7534 28.875 14.7534H34.125C34.8499 14.7534 35.4375 14.1658 35.4375 13.4409V8.19092C35.4375 7.46604 34.8499 6.87842 34.125 6.87842Z" stroke="#009379" stroke-width="2" stroke-linecap="round" stroke-linejoin="round"/>
<path d="M13.125 6.87842H7.875C7.15013 6.87842 6.5625 7.46604 6.5625 8.19092V13.4409C6.5625 14.1658 7.15013 14.7534 7.875 14.7534H13.125C13.8499 14.7534 14.4375 14.1658 14.4375 13.4409V8.19092C14.4375 7.46604 13.8499 6.87842 13.125 6.87842Z" stroke="#009379" stroke-width="2" stroke-linecap="round" stroke-linejoin="round"/>
<path d="M34.125 27.8784H28.875C28.1501 27.8784 27.5625 28.466 27.5625 29.1909V34.4409C27.5625 35.1658 28.1501 35.7534 28.875 35.7534H34.125C34.8499 35.7534 35.4375 35.1658 35.4375 34.4409V29.1909C35.4375 28.466 34.8499 27.8784 34.125 27.8784Z" stroke="#009379" stroke-width="2" stroke-linecap="round" stroke-linejoin="round"/>
<path d="M13.125 27.8784H7.875C7.15013 27.8784 6.5625 28.466 6.5625 29.1909V34.4409C6.5625 35.1658 7.15013 35.7534 7.875 35.7534H13.125C13.8499 35.7534 14.4375 35.1658 14.4375 34.4409V29.1909C14.4375 28.466 13.8499 27.8784 13.125 27.8784Z" stroke="#009379" stroke-width="2" stroke-linecap="round" stroke-linejoin="round"/>
<path d="M10.5 27.8784V14.7534" stroke="#009379" stroke-width="2" stroke-linecap="round" stroke-linejoin="round"/>
<path d="M27.5625 31.8159H14.4375" stroke="#009379" stroke-width="2" stroke-linecap="round" stroke-linejoin="round"/>
<path d="M31.5 14.7534V27.8784" stroke="#009379" stroke-width="2" stroke-linecap="round" stroke-linejoin="round"/>
<path d="M14.4375 10.8159H27.5625" stroke="#009379" stroke-width="2" stroke-linecap="round" stroke-linejoin="round"/>
</svg>
