<svg width="42" height="43" viewBox="0 0 42 43" fill="none" xmlns="http://www.w3.org/2000/svg">
<path opacity="0.2" d="M16.7998 32.8661L9.44979 25.5161L6.21776 34.4247C6.1284 34.6585 6.10863 34.9131 6.16084 35.1578C6.21304 35.4026 6.33498 35.627 6.51194 35.804C6.6889 35.9809 6.9133 36.1029 7.15805 36.1551C7.40281 36.2073 7.65744 36.1875 7.8912 36.0981L16.7998 32.8661Z" fill="#F8D57E"/>
<path opacity="0.2" d="M32.6207 25.15L32.6209 25.1502C32.7706 25.2985 32.8802 25.4823 32.9398 25.6844C32.9994 25.8864 33.007 26.1003 32.9617 26.3061C32.9165 26.5119 32.82 26.7029 32.6812 26.8614C32.5424 27.0199 32.3658 27.1407 32.1678 27.2127L25.4787 29.6436L12.6724 16.8374L15.1034 10.1482C15.1753 9.95023 15.2962 9.77362 15.4547 9.63481C15.6132 9.49601 15.8042 9.39952 16.01 9.35431C16.2157 9.3091 16.4296 9.31664 16.6317 9.37622C16.8338 9.43581 17.0175 9.5455 17.1659 9.69512L17.1661 9.69531L32.6207 25.15Z" fill="#F8D57E" stroke="#F8D57E" stroke-width="0.125"/>
<path d="M6.21776 34.4245L15.0443 10.1269C15.1199 9.91898 15.2468 9.73354 15.4132 9.58779C15.5796 9.44205 15.7802 9.34074 15.9963 9.29327C16.2123 9.2458 16.4369 9.25371 16.6491 9.31628C16.8613 9.37884 17.0542 9.49402 17.2099 9.65112L32.6646 25.1058C32.8217 25.2616 32.9369 25.4545 32.9995 25.6667C33.062 25.8789 33.0699 26.1034 33.0225 26.3195C32.975 26.5356 32.8737 26.7361 32.728 26.9026C32.5822 27.069 32.3968 27.1959 32.1888 27.2714L7.8912 36.098C7.65744 36.1873 7.40281 36.2071 7.15805 36.1549C6.9133 36.1027 6.6889 35.9808 6.51194 35.8038C6.33498 35.6268 6.21304 35.4024 6.16084 35.1577C6.10863 34.9129 6.1284 34.6583 6.21776 34.4245V34.4245Z" stroke="#F8D57E" stroke-width="2" stroke-linecap="round" stroke-linejoin="round"/>
<path d="M27.5625 12.1284C27.5625 12.1284 27.5625 8.19092 31.5 8.19092C35.4375 8.19092 35.4375 4.25342 35.4375 4.25342" stroke="#F8D57E" stroke-width="2" stroke-linecap="round" stroke-linejoin="round"/>
<path d="M16.8002 32.8661L9.4502 25.5161" stroke="#F8D57E" stroke-width="2" stroke-linecap="round" stroke-linejoin="round"/>
<path d="M23.625 2.94092V6.87842" stroke="#F8D57E" stroke-width="2" stroke-linecap="round" stroke-linejoin="round"/>
<path d="M35.4375 18.6909L38.0625 21.3159" stroke="#F8D57E" stroke-width="2" stroke-linecap="round" stroke-linejoin="round"/>
<path d="M35.4375 13.4409L39.375 12.1284" stroke="#F8D57E" stroke-width="2" stroke-linecap="round" stroke-linejoin="round"/>
<path d="M12.6001 16.8535L25.4626 29.716" stroke="#F8D57E" stroke-width="2" stroke-linecap="round" stroke-linejoin="round"/>
</svg>
