<svg width="18" height="18" viewBox="0 0 18 18" fill="none" xmlns="http://www.w3.org/2000/svg">
<path fill-rule="evenodd" clip-rule="evenodd" d="M17.5335 9.38869C17.5335 9.96578 17.4747 10.5421 17.3593 11.1038C17.2468 11.6522 17.0801 12.1906 16.8618 12.7053C16.6485 13.2109 16.3839 13.6981 16.0747 14.1525C15.7701 14.604 15.4192 15.0275 15.0338 15.4137C14.6475 15.7981 14.2225 16.148 13.7712 16.4539C13.3154 16.7609 12.8275 17.0251 12.3216 17.2394C11.8061 17.4566 11.2665 17.6231 10.7186 17.7354C10.1561 17.8511 9.57767 17.9102 8.99975 17.9102C8.42139 17.9102 7.84303 17.8511 7.28133 17.7354C6.73257 17.6231 6.19295 17.4566 5.67792 17.2394C5.17207 17.0251 4.68369 16.7609 4.22784 16.4539C3.77657 16.148 3.35155 15.7981 2.96611 15.4137C2.58027 15.0275 2.2294 14.604 1.92439 14.1525C1.61687 13.6981 1.35184 13.2109 1.13768 12.7053C0.919305 12.1906 0.752236 11.6522 0.63931 11.1038C0.525147 10.5421 0.466797 9.96578 0.466797 9.38869C0.466797 8.81116 0.525114 8.23364 0.639343 7.67312C0.75227 7.12471 0.919338 6.58548 1.13771 6.07162C1.35187 5.56567 1.6169 5.07803 1.92442 4.62364C2.22943 4.17178 2.5803 3.74901 2.96614 3.36246C3.35158 2.97798 3.7766 2.62891 4.22787 2.32351C4.68372 2.01517 5.1721 1.75099 5.67795 1.53626C6.19298 1.31861 6.73257 1.15178 7.28137 1.04029C7.84306 0.925454 8.42142 0.867188 8.99978 0.867188C9.57771 0.867188 10.1561 0.925454 10.7186 1.04029C11.2665 1.15181 11.8061 1.31864 12.3216 1.53626C12.8275 1.75095 13.3154 2.01517 13.7713 2.32351C14.2225 2.62891 14.6476 2.97798 15.0338 3.36246C15.4193 3.74901 15.7701 4.17178 16.0747 4.62364C16.3839 5.07803 16.6485 5.5657 16.8618 6.07162C17.0801 6.58548 17.2468 7.12471 17.3593 7.67312C17.4747 8.23364 17.5335 8.81116 17.5335 9.38869ZM5.89038 2.80657C3.85817 3.76484 2.34143 5.63473 1.86848 7.88826C2.0606 7.88993 5.09742 7.92822 8.59634 6.9999C7.33505 4.76217 5.98748 2.93601 5.89038 2.80657ZM9.20012 8.12047C5.44786 9.2422 1.84724 9.16149 1.71808 9.15652C1.71597 9.23473 1.71223 9.31044 1.71223 9.38868C1.71223 11.2581 2.41851 12.9624 3.57941 14.2511C3.5769 14.2473 5.5712 10.7143 9.50389 9.44445C9.59888 9.41283 9.69558 9.38451 9.7914 9.35706C9.6085 8.9435 9.40887 8.52906 9.20012 8.12047ZM13.8125 3.92711C12.5295 2.7974 10.8448 2.11215 8.99972 2.11215C8.4076 2.11215 7.83298 2.18372 7.28254 2.31603C7.3917 2.46251 8.76054 4.2758 10.0068 6.56092C12.7566 5.53154 13.7945 3.95372 13.8125 3.92711ZM10.2882 10.5629C10.2719 10.5683 10.2557 10.5729 10.2398 10.5787C5.94009 12.0755 4.53595 15.0919 4.52076 15.1249C5.75793 16.0856 7.30968 16.6652 8.99977 16.6652C10.009 16.6652 10.9703 16.46 11.8449 16.0885C11.737 15.4527 11.3136 13.2242 10.2882 10.5629ZM13.072 15.4236C14.7083 14.321 15.8705 12.5701 16.1946 10.542C16.0446 10.4938 14.0058 9.84925 11.6536 10.2258C12.6095 12.8489 12.9978 14.9851 13.072 15.4236ZM10.5678 7.64527C10.7369 7.99229 10.9007 8.34549 11.0519 8.70046C11.1057 8.8278 11.1582 8.95264 11.2095 9.07744C13.7129 8.76286 16.1793 9.29213 16.2847 9.31374C16.2681 7.58867 15.6501 6.00544 14.6276 4.76594C14.6138 4.78545 13.445 6.47187 10.5678 7.64527Z" fill="#2D2D2D"/>
</svg>
