<svg width="18" height="18" viewBox="0 0 18 18" fill="none" xmlns="http://www.w3.org/2000/svg">
<path fill-rule="evenodd" clip-rule="evenodd" d="M9.00093 0.867188C6.68339 0.867188 6.39255 0.877321 5.48232 0.918744C4.57386 0.960344 3.95377 1.10417 3.41118 1.31519C2.84993 1.53315 2.37384 1.82471 1.89952 2.2992C1.42485 2.77352 1.13329 3.24961 0.914624 3.81068C0.703066 4.35345 0.559065 4.97372 0.518175 5.88182C0.477464 6.79205 0.466797 7.08307 0.466797 9.40061C0.466797 11.7181 0.477108 12.0081 0.518353 12.9183C0.560131 13.8268 0.703955 14.4469 0.914802 14.9895C1.13294 15.5507 1.4245 16.0268 1.89899 16.5011C2.37313 16.9758 2.84922 17.2681 3.41012 17.486C3.95306 17.6971 4.57333 17.8409 5.4816 17.8825C6.39184 17.9239 6.68251 17.934 8.99986 17.934C11.3176 17.934 11.6075 17.9239 12.5178 17.8825C13.4262 17.8409 14.047 17.6971 14.59 17.486C15.151 17.2681 15.6264 16.9758 16.1006 16.5011C16.5752 16.0268 16.8668 15.5507 17.0855 14.9896C17.2952 14.4469 17.4392 13.8266 17.4819 12.9185C17.5228 12.0083 17.5335 11.7181 17.5335 9.40061C17.5335 7.08307 17.5228 6.79223 17.4819 5.88199C17.4392 4.97354 17.2952 4.35345 17.0855 3.81086C16.8668 3.24961 16.5752 2.77352 16.1006 2.2992C15.6259 1.82453 15.1512 1.53297 14.5894 1.31519C14.0454 1.10417 13.425 0.960344 12.5165 0.918744C11.6063 0.877321 11.3165 0.867188 8.99826 0.867188H9.00093ZM8.23537 2.40496C8.46258 2.4046 8.71609 2.40496 9.00089 2.40496C11.2793 2.40496 11.5494 2.41314 12.4491 2.45402C13.2811 2.49207 13.7327 2.63109 14.0335 2.74789C14.4317 2.90256 14.7156 3.08745 15.0141 3.38612C15.3128 3.68479 15.4977 3.96924 15.6527 4.36747C15.7695 4.66791 15.9087 5.11947 15.9466 5.95148C15.9875 6.85105 15.9963 7.12127 15.9963 9.39863C15.9963 11.676 15.9875 11.9462 15.9466 12.8458C15.9085 13.6778 15.7695 14.1293 15.6527 14.4298C15.498 14.828 15.3128 15.1116 15.0141 15.4101C14.7154 15.7087 14.4319 15.8936 14.0335 16.0483C13.733 16.1656 13.2811 16.3043 12.4491 16.3423C11.5495 16.3832 11.2793 16.3921 9.00089 16.3921C6.72229 16.3921 6.45224 16.3832 5.55268 16.3423C4.72067 16.3039 4.26911 16.1649 3.96813 16.0481C3.5699 15.8935 3.28546 15.7086 2.98679 15.4099C2.68812 15.1112 2.50323 14.8275 2.3482 14.4291C2.2314 14.1286 2.0922 13.6771 2.05433 12.8451C2.01344 11.9455 2.00527 11.6753 2.00527 9.3965C2.00527 7.11772 2.01344 6.84892 2.05433 5.94935C2.09238 5.11734 2.2314 4.66578 2.3482 4.36498C2.50287 3.96675 2.68812 3.6823 2.98679 3.38363C3.28546 3.08496 3.5699 2.90007 3.96813 2.74505C4.26893 2.62772 4.72067 2.48905 5.55268 2.45082C6.33989 2.41527 6.64496 2.4046 8.23537 2.40282V2.40496ZM13.556 3.82186C12.9906 3.82186 12.532 4.28 12.532 4.84552C12.532 5.41086 12.9906 5.86953 13.556 5.86953C14.1213 5.86953 14.58 5.41086 14.58 4.84552C14.58 4.28018 14.1213 3.82186 13.556 3.82186ZM9.00095 5.01832C6.58083 5.01832 4.61868 6.98047 4.61868 9.40059C4.61868 11.8207 6.58083 13.782 9.00095 13.782C11.4211 13.782 13.3825 11.8207 13.3825 9.40059C13.3825 6.98047 11.4211 5.01832 9.00095 5.01832ZM9.00091 6.55611C10.5718 6.55611 11.8454 7.82955 11.8454 9.40059C11.8454 10.9714 10.5718 12.2451 9.00091 12.2451C7.42987 12.2451 6.15644 10.9714 6.15644 9.40059C6.15644 7.82955 7.42987 6.55611 9.00091 6.55611Z" fill="#2D2D2D"/>
</svg>
