<svg width="18" height="17" viewBox="0 0 18 17" fill="none" xmlns="http://www.w3.org/2000/svg">
<path d="M4.54597 2.28219C4.52244 1.21399 3.75857 0.400391 2.51815 0.400391C1.27774 0.400391 0.466797 1.21399 0.466797 2.28219C0.466797 3.32826 1.25377 4.16529 2.47108 4.16529H2.49426C3.75857 4.16529 4.54597 3.32826 4.54597 2.28219Z" fill="white"/>
<path d="M4.30716 5.65234H0.681213V16.5468H4.30716V5.65234Z" fill="white"/>
<path d="M13.2089 5.39648C15.5949 5.39648 17.3837 6.95391 17.3837 10.3002L17.3836 16.5468H13.7578V10.7182C13.7578 9.25423 13.2331 8.25523 11.9205 8.25523C10.9187 8.25523 10.3221 8.9287 10.06 9.57917C9.96413 9.81229 9.94059 10.1371 9.94059 10.4627V16.5471H6.31421C6.31421 16.5471 6.362 6.67488 6.31421 5.6526H9.94059V7.19571C10.4218 6.45391 11.2838 5.39648 13.2089 5.39648Z" fill="white"/>
</svg>
