<svg width="42" height="43" viewBox="0 0 42 43" fill="none" xmlns="http://www.w3.org/2000/svg">
<path opacity="0.2" d="M11.435 36.1308C11.3129 36.2548 11.1673 36.3533 11.0068 36.4205C10.8462 36.4877 10.6739 36.5223 10.4999 36.5223C10.3258 36.5223 10.1535 36.4877 9.99295 36.4205C9.8324 36.3533 9.68683 36.2548 9.5647 36.1308L6.18501 32.7511C6.061 32.6289 5.96252 32.4834 5.8953 32.3228C5.82808 32.1623 5.79346 31.99 5.79346 31.8159C5.79346 31.6419 5.82808 31.4696 5.8953 31.309C5.96252 31.1485 6.061 31.0029 6.18501 30.8808L23.6249 13.4409L28.8749 18.6909L11.435 36.1308Z" fill="#FF6250"/>
<path d="M35.4375 21.3159V29.1909" stroke="#FF6250" stroke-width="2.375" stroke-linecap="round" stroke-linejoin="round"/>
<path d="M31.5 25.2534H39.375" stroke="#FF6250" stroke-width="2.375" stroke-linecap="round" stroke-linejoin="round"/>
<path d="M13.7812 6.87842V13.4409" stroke="#FF6250" stroke-width="2.375" stroke-linecap="round" stroke-linejoin="round"/>
<path d="M10.5 10.1597H17.0625" stroke="#FF6250" stroke-width="2.375" stroke-linecap="round" stroke-linejoin="round"/>
<path d="M27.5625 30.5034V35.7534" stroke="#FF6250" stroke-width="2.375" stroke-linecap="round" stroke-linejoin="round"/>
<path d="M24.9375 33.1284H30.1875" stroke="#FF6250" stroke-width="2.375" stroke-linecap="round" stroke-linejoin="round"/>
<path d="M30.5857 6.49002L6.18882 30.8869C5.67626 31.3994 5.67626 32.2305 6.18882 32.743L9.5821 36.1363C10.0947 36.6489 10.9257 36.6489 11.4383 36.1363L35.8351 11.7395C36.3477 11.2269 36.3477 10.3959 35.8351 9.88331L32.4418 6.49002C31.9293 5.97746 31.0982 5.97746 30.5857 6.49002Z" stroke="#FF6250" stroke-width="2.375" stroke-linecap="round" stroke-linejoin="round"/>
<path d="M23.625 13.4409L28.875 18.6909" stroke="#FF6250" stroke-width="2.375" stroke-linecap="round" stroke-linejoin="round"/>
</svg>
