<svg width="20" height="21" viewBox="0 0 20 21" fill="none" xmlns="http://www.w3.org/2000/svg">
<path opacity="0.2" d="M10 12.9004C12.7614 12.9004 15 10.6618 15 7.90039C15 5.13897 12.7614 2.90039 10 2.90039C7.23858 2.90039 5 5.13897 5 7.90039C5 10.6618 7.23858 12.9004 10 12.9004Z" fill="#009379"/>
<path d="M10 12.9004C12.7614 12.9004 15 10.6618 15 7.90039C15 5.13897 12.7614 2.90039 10 2.90039C7.23858 2.90039 5 5.13897 5 7.90039C5 10.6618 7.23858 12.9004 10 12.9004Z" stroke="#009379" stroke-width="0.740741" stroke-miterlimit="10"/>
<path d="M2.42188 17.2751C3.18979 15.9448 4.2944 14.84 5.62465 14.0719C6.9549 13.3038 8.46392 12.8994 10 12.8994C11.5361 12.8994 13.0451 13.3038 14.3753 14.0719C15.7056 14.84 16.8102 15.9448 17.5781 17.2751" stroke="#009379" stroke-width="0.740741" stroke-linecap="round" stroke-linejoin="round"/>
</svg>
