<svg width="18" height="13" viewBox="0 0 18 13" fill="none" xmlns="http://www.w3.org/2000/svg">
<path fill-rule="evenodd" clip-rule="evenodd" d="M15.6679 0.900399C16.4022 1.10191 16.9805 1.69565 17.1768 2.44966C17.5335 3.81621 17.5335 6.66751 17.5335 6.66751C17.5335 6.66751 17.5335 9.51872 17.1768 10.8854C16.9805 11.6394 16.4022 12.2331 15.6679 12.4347C14.3371 12.8008 9.00013 12.8008 9.00013 12.8008C9.00013 12.8008 3.66321 12.8008 2.3323 12.4347C1.59795 12.2331 1.01962 11.6394 0.823354 10.8854C0.466797 9.51872 0.466797 6.66751 0.466797 6.66751C0.466797 6.66751 0.466797 3.81621 0.823354 2.44966C1.01962 1.69565 1.59795 1.10191 2.3323 0.900399C3.66321 0.53418 9.00013 0.53418 9.00013 0.53418C9.00013 0.53418 14.3371 0.53418 15.6679 0.900399ZM7.40015 4.26746V9.60079L11.6668 6.93422L7.40015 4.26746Z" fill="white"/>
</svg>
